<svg width="196" height="243" viewBox="0 0 196 243" fill="none" xmlns="http://www.w3.org/2000/svg">
<rect x="49" y="0.72052" width="49" height="61.7642" fill="#FFAC30"/>
<rect width="82.2906" height="123.994" transform="matrix(0.0101702 0.999948 -0.999955 0.00947208 159.825 111.127)" fill="#FFAC30"/>
<path d="M19.6 120.273L98 171.409L176.4 120.273L98 69.1364L19.6 120.273ZM196 120.273V222.545C196 227.97 193.935 233.173 190.259 237.009C186.584 240.845 181.598 243 176.4 243H19.6C14.4018 243 9.41642 240.845 5.74071 237.009C2.06499 233.173 0 227.97 0 222.545V120.273C0 112.807 3.822 106.364 9.506 102.784L98 45L142.247 73.892L186.494 102.784C192.178 106.364 196 112.807 196 120.273Z" fill="#979797"/>
<rect x="45" y="38.3581" width="108" height="74.31" fill="#FFAC30"/>
<path d="M106.312 44.05H149.281L106.312 10.225V44.05ZM51.625 1H114.125L161 37.9V111.7C161 114.962 159.354 118.091 156.424 120.397C153.493 122.704 149.519 124 145.375 124H51.625C42.9531 124 36 118.465 36 111.7V13.3C36 6.4735 42.9531 1 51.625 1ZM90.6875 13.3H51.625V111.7H90.6875H145.375V56.35H90.6875V13.3Z" fill="#FFAC30"/>
<path d="M52.672 77.4C55.472 77.4 57.6093 77.9133 59.084 78.94C60.5773 79.9667 61.324 81.5347 61.324 83.644C61.324 86.276 60.0267 88.0587 57.432 88.992C57.7867 89.4213 58.188 89.944 58.636 90.56C59.084 91.176 59.5413 91.848 60.008 92.576C60.4747 93.2853 60.9227 94.0227 61.352 94.788C61.7813 95.5347 62.164 96.272 62.5 97H58.552C58.1973 96.328 57.8147 95.656 57.404 94.984C56.9933 94.2933 56.5733 93.6307 56.144 92.996C55.7333 92.3427 55.3227 91.736 54.912 91.176C54.5013 90.5973 54.1187 90.084 53.764 89.636C53.5027 89.6547 53.2787 89.664 53.092 89.664C52.9053 89.664 52.728 89.664 52.56 89.664H50.852V97H47.324V77.876C48.1827 77.6893 49.0973 77.568 50.068 77.512C51.0387 77.4373 51.9067 77.4 52.672 77.4ZM52.924 80.452C52.1773 80.452 51.4867 80.48 50.852 80.536V86.808H52.392C53.2507 86.808 54.0067 86.7613 54.66 86.668C55.3133 86.5747 55.8547 86.4067 56.284 86.164C56.732 85.9213 57.068 85.5947 57.292 85.184C57.516 84.7733 57.628 84.2507 57.628 83.616C57.628 83.0187 57.516 82.5147 57.292 82.104C57.068 81.6933 56.7413 81.3667 56.312 81.124C55.9013 80.8813 55.4067 80.7133 54.828 80.62C54.2493 80.508 53.6147 80.452 52.924 80.452ZM64.2542 89.748C64.2542 88.46 64.4408 87.3307 64.8142 86.36C65.2062 85.3893 65.7195 84.5867 66.3542 83.952C66.9888 83.2987 67.7168 82.8133 68.5382 82.496C69.3595 82.16 70.1995 81.992 71.0582 81.992C73.0742 81.992 74.6422 82.6173 75.7622 83.868C76.9008 85.1187 77.4702 86.9853 77.4702 89.468C77.4702 89.6547 77.4608 89.8693 77.4422 90.112C77.4422 90.336 77.4328 90.5413 77.4142 90.728H67.7542C67.8475 91.904 68.2582 92.8187 68.9862 93.472C69.7328 94.1067 70.8062 94.424 72.2062 94.424C73.0275 94.424 73.7742 94.3493 74.4462 94.2C75.1368 94.0507 75.6782 93.892 76.0702 93.724L76.5182 96.496C76.3315 96.5893 76.0702 96.692 75.7342 96.804C75.4168 96.8973 75.0435 96.9813 74.6142 97.056C74.2035 97.1493 73.7555 97.224 73.2702 97.28C72.7848 97.336 72.2902 97.364 71.7862 97.364C70.4982 97.364 69.3782 97.1773 68.4262 96.804C67.4742 96.412 66.6902 95.88 66.0742 95.208C65.4582 94.5173 65.0008 93.7147 64.7022 92.8C64.4035 91.8667 64.2542 90.8493 64.2542 89.748ZM74.0822 88.236C74.0822 87.7693 74.0168 87.3307 73.8862 86.92C73.7555 86.4907 73.5595 86.1267 73.2982 85.828C73.0555 85.5107 72.7475 85.268 72.3742 85.1C72.0195 84.9133 71.5902 84.82 71.0862 84.82C70.5635 84.82 70.1062 84.9227 69.7142 85.128C69.3222 85.3147 68.9862 85.5667 68.7062 85.884C68.4448 86.2013 68.2395 86.5653 68.0902 86.976C67.9408 87.3867 67.8382 87.8067 67.7822 88.236H74.0822ZM87.0263 75.272C87.8103 75.272 88.5009 75.3467 89.0983 75.496C89.6956 75.6267 90.1436 75.748 90.4423 75.86L89.7983 78.66C89.4809 78.5107 89.1076 78.3893 88.6783 78.296C88.2676 78.2027 87.8196 78.156 87.3343 78.156C86.7929 78.156 86.3356 78.24 85.9623 78.408C85.5889 78.5573 85.2903 78.772 85.0663 79.052C84.8423 79.332 84.6836 79.6773 84.5903 80.088C84.4969 80.48 84.4503 80.9093 84.4503 81.376V82.356H89.7703V85.184H84.4503V97H81.0623V81.32C81.0623 79.4347 81.5569 77.96 82.5463 76.896C83.5356 75.8133 85.0289 75.272 87.0263 75.272ZM111.879 82.832C112.532 82.6453 113.381 82.468 114.427 82.3C115.472 82.132 116.629 82.048 117.899 82.048C119.093 82.048 120.092 82.216 120.895 82.552C121.697 82.8693 122.332 83.3267 122.799 83.924C123.284 84.5027 123.62 85.212 123.807 86.052C124.012 86.8733 124.115 87.7787 124.115 88.768V97H120.727V89.3C120.727 88.516 120.671 87.8533 120.559 87.312C120.465 86.752 120.297 86.304 120.055 85.968C119.831 85.6133 119.513 85.3613 119.103 85.212C118.711 85.044 118.225 84.96 117.647 84.96C117.217 84.96 116.769 84.988 116.303 85.044C115.836 85.1 115.491 85.1467 115.267 85.184V97H111.879V82.832ZM130.918 89.636C130.918 91.1293 131.272 92.3053 131.982 93.164C132.691 94.004 133.671 94.424 134.922 94.424C135.463 94.424 135.92 94.4053 136.294 94.368C136.686 94.312 137.003 94.256 137.246 94.2V85.8C136.947 85.5947 136.546 85.408 136.042 85.24C135.556 85.0533 135.034 84.96 134.474 84.96C133.242 84.96 132.336 85.38 131.758 86.22C131.198 87.06 130.918 88.1987 130.918 89.636ZM140.634 96.552C139.962 96.7573 139.112 96.944 138.086 97.112C137.078 97.28 136.014 97.364 134.894 97.364C133.736 97.364 132.7 97.1867 131.786 96.832C130.871 96.4773 130.087 95.9733 129.434 95.32C128.799 94.648 128.304 93.8453 127.95 92.912C127.614 91.96 127.446 90.896 127.446 89.72C127.446 88.5627 127.586 87.5173 127.866 86.584C128.164 85.632 128.594 84.82 129.154 84.148C129.714 83.476 130.395 82.9627 131.198 82.608C132 82.2347 132.924 82.048 133.97 82.048C134.679 82.048 135.304 82.132 135.846 82.3C136.387 82.468 136.854 82.6547 137.246 82.86V75.832L140.634 75.272V96.552ZM153.281 85.408C153.001 85.3147 152.609 85.2213 152.105 85.128C151.62 85.016 151.051 84.96 150.397 84.96C150.024 84.96 149.623 84.9973 149.193 85.072C148.783 85.1467 148.493 85.212 148.325 85.268V97H144.937V83.056C145.591 82.8133 146.403 82.5893 147.373 82.384C148.363 82.16 149.455 82.048 150.649 82.048C150.873 82.048 151.135 82.0667 151.433 82.104C151.732 82.1227 152.031 82.16 152.329 82.216C152.628 82.2533 152.917 82.3093 153.197 82.384C153.477 82.44 153.701 82.496 153.869 82.552L153.281 85.408Z" fill="#102542"/>
<path d="M106 83.5152V94.5455V94.5455C102.663 98.4658 96.25 96.106 96.25 90.9578V78M96.25 78L99.175 83.5152M96.25 78L93 83.5152" stroke="#102542" stroke-width="3.1"/>
</svg>
