<svg width="296" height="385" viewBox="0 0 296 385" fill="none" xmlns="http://www.w3.org/2000/svg">
<rect x="74" width="74" height="98.1479" fill="#FFAC30"/>
<rect width="130.765" height="187.257" transform="matrix(0.00966546 0.999953 -0.99995 0.0099667 241.369 175.444)" fill="#FFAC30"/>
<path d="M29.6 189.977L148 271.237L266.4 189.977L148 108.718L29.6 189.977ZM296 189.977V352.496C296 361.117 292.881 369.384 287.33 375.48C281.779 381.575 274.25 385 266.4 385H29.6C21.7496 385 14.2207 381.575 8.66964 375.48C3.11856 369.384 0 361.117 0 352.496V189.977C0 178.113 5.772 167.875 14.356 162.187L148 70.3634L214.822 116.275L281.644 162.187C290.228 167.875 296 178.113 296 189.977Z" fill="#979797"/>
<rect x="67.9592" y="59.8089" width="163.102" height="118.084" fill="#FFAC30"/>
<path d="M160.554 68.8537H225.445L160.554 15.1033V68.8537ZM77.9643 0.444115H172.352L243.143 59.0809V176.355C243.143 181.538 240.657 186.51 236.231 190.175C231.806 193.841 225.804 195.9 219.546 195.9H77.9643C64.868 195.9 54.3673 187.105 54.3673 176.355V19.9897C54.3673 9.14191 64.868 0.444115 77.9643 0.444115ZM136.957 19.9897H77.9643V176.355H136.957H219.546V88.3994H136.957V19.9897Z" fill="#FFAC30"/>
</svg>
