<svg width="187" height="60" viewBox="0 0 187 60" fill="none" xmlns="http://www.w3.org/2000/svg">
<path d="M13.152 11.4C17.952 11.4 21.616 12.28 24.144 14.04C26.704 15.8 27.984 18.488 27.984 22.104C27.984 26.616 25.76 29.672 21.312 31.272C21.92 32.008 22.608 32.904 23.376 33.96C24.144 35.016 24.928 36.168 25.728 37.416C26.528 38.632 27.296 39.896 28.032 41.208C28.768 42.488 29.424 43.752 30 45H23.232C22.624 43.848 21.968 42.696 21.264 41.544C20.56 40.36 19.84 39.224 19.104 38.136C18.4 37.016 17.696 35.976 16.992 35.016C16.288 34.024 15.632 33.144 15.024 32.376C14.576 32.408 14.192 32.424 13.872 32.424C13.552 32.424 13.248 32.424 12.96 32.424H10.032V45H3.984V12.216C5.456 11.896 7.024 11.688 8.688 11.592C10.352 11.464 11.84 11.4 13.152 11.4ZM13.584 16.632C12.304 16.632 11.12 16.68 10.032 16.776V27.528H12.672C14.144 27.528 15.44 27.448 16.56 27.288C17.68 27.128 18.608 26.84 19.344 26.424C20.112 26.008 20.688 25.448 21.072 24.744C21.456 24.04 21.648 23.144 21.648 22.056C21.648 21.032 21.456 20.168 21.072 19.464C20.688 18.76 20.128 18.2 19.392 17.784C18.688 17.368 17.84 17.08 16.848 16.92C15.856 16.728 14.768 16.632 13.584 16.632ZM33.0071 32.568C33.0071 30.36 33.3271 28.424 33.9671 26.76C34.6391 25.096 35.5191 23.72 36.6071 22.632C37.6951 21.512 38.9431 20.68 40.3511 20.136C41.7591 19.56 43.1991 19.272 44.6711 19.272C48.1271 19.272 50.8151 20.344 52.7351 22.488C54.6871 24.632 55.6631 27.832 55.6631 32.088C55.6631 32.408 55.6471 32.776 55.6151 33.192C55.6151 33.576 55.5991 33.928 55.5671 34.248H39.0071C39.1671 36.264 39.8711 37.832 41.1191 38.952C42.3991 40.04 44.2391 40.584 46.6391 40.584C48.0471 40.584 49.3271 40.456 50.4791 40.2C51.6631 39.944 52.5911 39.672 53.2631 39.384L54.0311 44.136C53.7111 44.296 53.2631 44.472 52.6871 44.664C52.1431 44.824 51.5031 44.968 50.7671 45.096C50.0631 45.256 49.2951 45.384 48.4631 45.48C47.6311 45.576 46.7831 45.624 45.9191 45.624C43.7111 45.624 41.7911 45.304 40.1591 44.664C38.5271 43.992 37.1831 43.08 36.1271 41.928C35.0711 40.744 34.2871 39.368 33.7751 37.8C33.2631 36.2 33.0071 34.456 33.0071 32.568ZM49.8551 29.976C49.8551 29.176 49.7431 28.424 49.5191 27.72C49.2951 26.984 48.9591 26.36 48.5111 25.848C48.0951 25.304 47.5671 24.888 46.9271 24.6C46.3191 24.28 45.5831 24.12 44.7191 24.12C43.8231 24.12 43.0391 24.296 42.3671 24.648C41.6951 24.968 41.1191 25.4 40.6391 25.944C40.1911 26.488 39.8391 27.112 39.5831 27.816C39.3271 28.52 39.1511 29.24 39.0551 29.976H49.8551ZM72.045 7.752C73.389 7.752 74.573 7.88 75.597 8.136C76.621 8.36 77.389 8.568 77.901 8.76L76.797 13.56C76.253 13.304 75.613 13.096 74.877 12.936C74.173 12.776 73.405 12.696 72.573 12.696C71.645 12.696 70.861 12.84 70.221 13.128C69.581 13.384 69.069 13.752 68.685 14.232C68.301 14.712 68.029 15.304 67.869 16.008C67.709 16.68 67.629 17.416 67.629 18.216V19.896H76.749V24.744H67.629V45H61.821V18.12C61.821 14.888 62.669 12.36 64.365 10.536C66.061 8.68 68.621 7.752 72.045 7.752ZM114.649 20.712C115.769 20.392 117.225 20.088 119.017 19.8C120.809 19.512 122.793 19.368 124.969 19.368C127.017 19.368 128.729 19.656 130.105 20.232C131.481 20.776 132.569 21.56 133.369 22.584C134.201 23.576 134.777 24.792 135.097 26.232C135.449 27.64 135.625 29.192 135.625 30.888V45H129.817V31.8C129.817 30.456 129.721 29.32 129.529 28.392C129.369 27.432 129.081 26.664 128.665 26.088C128.281 25.48 127.737 25.048 127.033 24.792C126.361 24.504 125.529 24.36 124.537 24.36C123.801 24.36 123.033 24.408 122.233 24.504C121.433 24.6 120.841 24.68 120.457 24.744V45H114.649V20.712ZM147.287 32.376C147.287 34.936 147.895 36.952 149.111 38.424C150.327 39.864 152.007 40.584 154.151 40.584C155.079 40.584 155.863 40.552 156.503 40.488C157.175 40.392 157.719 40.296 158.135 40.2V25.8C157.623 25.448 156.935 25.128 156.071 24.84C155.239 24.52 154.343 24.36 153.383 24.36C151.271 24.36 149.719 25.08 148.727 26.52C147.767 27.96 147.287 29.912 147.287 32.376ZM163.943 44.232C162.791 44.584 161.335 44.904 159.575 45.192C157.847 45.48 156.023 45.624 154.103 45.624C152.119 45.624 150.343 45.32 148.775 44.712C147.207 44.104 145.863 43.24 144.743 42.12C143.655 40.968 142.807 39.592 142.199 37.992C141.623 36.36 141.335 34.536 141.335 32.52C141.335 30.536 141.575 28.744 142.055 27.144C142.567 25.512 143.303 24.12 144.263 22.968C145.223 21.816 146.391 20.936 147.767 20.328C149.143 19.688 150.727 19.368 152.519 19.368C153.735 19.368 154.807 19.512 155.735 19.8C156.663 20.088 157.463 20.408 158.135 20.76V8.712L163.943 7.752V44.232ZM185.625 25.128C185.145 24.968 184.473 24.808 183.609 24.648C182.777 24.456 181.801 24.36 180.681 24.36C180.041 24.36 179.353 24.424 178.617 24.552C177.913 24.68 177.417 24.792 177.129 24.888V45H171.321V21.096C172.441 20.68 173.833 20.296 175.497 19.944C177.193 19.56 179.065 19.368 181.113 19.368C181.497 19.368 181.945 19.4 182.457 19.464C182.969 19.496 183.481 19.56 183.993 19.656C184.505 19.72 185.001 19.816 185.481 19.944C185.961 20.04 186.345 20.136 186.633 20.232L185.625 25.128Z" fill="#102542"/>
<path d="M106 22.2576V40.7727V40.7727C100.713 47.2268 90.25 43.4884 90.25 35.1454V13M90.25 13L94.975 22.2576M90.25 13L85 22.2576" stroke="#102542" stroke-width="5"/>
<path d="M106 27V20" stroke="#102542" stroke-width="5"/>
<line x1="106.5" y1="38" x2="105.5" y2="43" stroke="#102542"/>
<path d="M105 42.934C108 43.5208 108 40 108 40" stroke="#102542"/>
<rect x="108" y="42" width="1" height="2" transform="rotate(179.998 108 42)" fill="#102542"/>
<rect width="1.2" height="1.3" transform="matrix(0.549477 -0.835509 -0.835509 -0.549477 88.0397 23.9983)" fill="#102542"/>
</svg>
