<svg width="780" height="243" viewBox="0 0 780 243" fill="none" xmlns="http://www.w3.org/2000/svg">
<path d="M54.8 49C74.8 49 90.0667 52.6667 100.6 60C111.267 67.3333 116.6 78.5333 116.6 93.6C116.6 112.4 107.333 125.133 88.8 131.8C91.3333 134.867 94.2 138.6 97.4 143C100.6 147.4 103.867 152.2 107.2 157.4C110.533 162.467 113.733 167.733 116.8 173.2C119.867 178.533 122.6 183.8 125 189H96.8C94.2667 184.2 91.5333 179.4 88.6 174.6C85.6667 169.667 82.6667 164.933 79.6 160.4C76.6667 155.733 73.7333 151.4 70.8 147.4C67.8667 143.267 65.1333 139.6 62.6 136.4C60.7333 136.533 59.1333 136.6 57.8 136.6C56.4667 136.6 55.2 136.6 54 136.6H41.8V189H16.6V52.4C22.7333 51.0667 29.2667 50.2 36.2 49.8C43.1333 49.2667 49.3333 49 54.8 49ZM56.6 70.8C51.2667 70.8 46.3333 71 41.8 71.4V116.2H52.8C58.9333 116.2 64.3333 115.867 69 115.2C73.6667 114.533 77.5333 113.333 80.6 111.6C83.8 109.867 86.2 107.533 87.8 104.6C89.4 101.667 90.2 97.9333 90.2 93.4C90.2 89.1333 89.4 85.5333 87.8 82.6C86.2 79.6667 83.8667 77.3333 80.8 75.6C77.8667 73.8667 74.3333 72.6667 70.2 72C66.0667 71.2 61.5333 70.8 56.6 70.8ZM137.53 137.2C137.53 128 138.863 119.933 141.53 113C144.33 106.067 147.996 100.333 152.53 95.8C157.063 91.1333 162.263 87.6667 168.13 85.4C173.996 83 179.996 81.8 186.13 81.8C200.53 81.8 211.73 86.2667 219.73 95.2C227.863 104.133 231.93 117.467 231.93 135.2C231.93 136.533 231.863 138.067 231.73 139.8C231.73 141.4 231.663 142.867 231.53 144.2H162.53C163.196 152.6 166.13 159.133 171.33 163.8C176.663 168.333 184.33 170.6 194.33 170.6C200.196 170.6 205.53 170.067 210.33 169C215.263 167.933 219.13 166.8 221.93 165.6L225.13 185.4C223.796 186.067 221.93 186.8 219.53 187.6C217.263 188.267 214.596 188.867 211.53 189.4C208.596 190.067 205.396 190.6 201.93 191C198.463 191.4 194.93 191.6 191.33 191.6C182.13 191.6 174.13 190.267 167.33 187.6C160.53 184.8 154.93 181 150.53 176.2C146.13 171.267 142.863 165.533 140.73 159C138.596 152.333 137.53 145.067 137.53 137.2ZM207.73 126.4C207.73 123.067 207.263 119.933 206.33 117C205.396 113.933 203.996 111.333 202.13 109.2C200.396 106.933 198.196 105.2 195.53 104C192.996 102.667 189.93 102 186.33 102C182.596 102 179.33 102.733 176.53 104.2C173.73 105.533 171.33 107.333 169.33 109.6C167.463 111.867 165.996 114.467 164.93 117.4C163.863 120.333 163.13 123.333 162.73 126.4H207.73ZM300.188 33.8C305.788 33.8 310.721 34.3333 314.988 35.4C319.254 36.3333 322.454 37.2 324.588 38L319.988 58C317.721 56.9333 315.054 56.0667 311.988 55.4C309.054 54.7333 305.854 54.4 302.388 54.4C298.521 54.4 295.254 55 292.588 56.2C289.921 57.2667 287.788 58.8 286.188 60.8C284.588 62.8 283.454 65.2667 282.788 68.2C282.121 71 281.788 74.0667 281.788 77.4V84.4H319.788V104.6H281.788V189H257.588V77C257.588 63.5333 261.121 53 268.188 45.4C275.254 37.6667 285.921 33.8 300.188 33.8ZM477.705 87.8C482.371 86.4667 488.438 85.2 495.905 84C503.371 82.8 511.638 82.2 520.705 82.2C529.238 82.2 536.371 83.4 542.105 85.8C547.838 88.0667 552.371 91.3333 555.705 95.6C559.171 99.7333 561.571 104.8 562.905 110.8C564.371 116.667 565.105 123.133 565.105 130.2V189H540.905V134C540.905 128.4 540.505 123.667 539.705 119.8C539.038 115.8 537.838 112.6 536.105 110.2C534.505 107.667 532.238 105.867 529.305 104.8C526.505 103.6 523.038 103 518.905 103C515.838 103 512.638 103.2 509.305 103.6C505.971 104 503.505 104.333 501.905 104.6V189H477.705V87.8ZM613.697 136.4C613.697 147.067 616.23 155.467 621.297 161.6C626.364 167.6 633.364 170.6 642.297 170.6C646.164 170.6 649.43 170.467 652.097 170.2C654.897 169.8 657.164 169.4 658.897 169V109C656.764 107.533 653.897 106.2 650.297 105C646.83 103.667 643.097 103 639.097 103C630.297 103 623.83 106 619.697 112C615.697 118 613.697 126.133 613.697 136.4ZM683.097 185.8C678.297 187.267 672.23 188.6 664.897 189.8C657.697 191 650.097 191.6 642.097 191.6C633.83 191.6 626.43 190.333 619.897 187.8C613.364 185.267 607.764 181.667 603.097 177C598.564 172.2 595.03 166.467 592.497 159.8C590.097 153 588.897 145.4 588.897 137C588.897 128.733 589.897 121.267 591.897 114.6C594.03 107.8 597.097 102 601.097 97.2C605.097 92.4 609.964 88.7333 615.697 86.2C621.43 83.5333 628.03 82.2 635.497 82.2C640.564 82.2 645.03 82.8 648.897 84C652.764 85.2 656.097 86.5333 658.897 88V37.8L683.097 33.8V185.8ZM773.438 106.2C771.438 105.533 768.638 104.867 765.038 104.2C761.571 103.4 757.504 103 752.838 103C750.171 103 747.304 103.267 744.238 103.8C741.304 104.333 739.238 104.8 738.038 105.2V189H713.838V89.4C718.504 87.6667 724.304 86.0667 731.238 84.6C738.304 83 746.104 82.2 754.638 82.2C756.238 82.2 758.104 82.3333 760.238 82.6C762.371 82.7333 764.504 83 766.638 83.4C768.771 83.6667 770.838 84.0667 772.838 84.6C774.838 85 776.438 85.4 777.638 85.8L773.438 106.2Z" fill="#102542"/>
<path d="M452.492 174.523C455.851 171.731 457.04 163.19 454.99 166.933C452.94 170.676 445.435 168.84 439 166.933C439 166.933 449.133 177.316 452.492 174.523Z" fill="#102542" stroke="#102542"/>
<path d="M444 92.0303V166.091V166.091C418.99 193.375 373.5 175.68 373.5 138.668V55M373.5 55L394.65 92.0303M373.5 55L350 92.0303" stroke="#102542" stroke-width="25"/>
<rect x="446" y="84" width="10.5" height="22" fill="#102542"/>
<rect x="447.5" y="106" width="16" height="22" transform="rotate(180 447.5 106)" fill="#102542"/>
<rect x="442" y="165" width="13" height="4" fill="#102542"/>
</svg>
